<svg width="144" height="28" viewBox="0 0 144 28" fill="none" xmlns="http://www.w3.org/2000/svg">
<path d="M13.9951 0.537079H24.8269L38.8699 28H31.441L19.2672 5.52162L7.33303 28H0L13.9951 0.537079Z" fill="#C2C2C2"/>
<rect x="40.166" y="0.537079" width="6.61411" height="27.415" fill="#C2C2C2"/>
<path d="M62.2104 0.537079H68.8246H115.315L110.235 6.57605H92.1177V12.4712L93.1242 11.273H113.685L108.701 17.6954H92.1177L90.5121 19.9241L89.1462 21.7214H114.021L108.701 27.9521H62.2104V11.273H68.8246V21.7214H80.308C81.0167 21.7214 81.7181 21.5793 82.3709 21.3036C85.1138 20.1449 86.8366 17.3917 86.6792 14.4183L86.5101 11.2251C86.3305 9.66815 85.3842 8.30415 83.9888 7.59059L83.7041 7.44496C82.5872 6.87385 81.3507 6.57605 80.0963 6.57605H67.8181L62.2104 0.537079Z" fill="#C2C2C2"/>
<path d="M118.479 0.537079H143.211L138.561 6.57605H124.902V12.5671L126.004 11.321H139.376L134.775 17.9351H124.902V27.9521H118.479V0.537079Z" fill="#C2C2C2"/>
<path d="M13.9951 0H24.8269L38.8699 27.4629H31.441L19.2672 4.98454L7.33303 27.4629H0L13.9951 0Z" fill="white"/>
<rect x="40.166" width="6.61411" height="27.415" fill="white"/>
<path d="M62.2104 0H68.8246H115.315L110.235 6.03897H92.1177V11.9342L93.1242 10.7359H113.685L108.701 17.1583H92.1177L90.5121 19.387L89.1462 21.1843H114.021L108.701 27.415H62.2104V10.7359H68.8246V21.1843H80.308C81.0167 21.1843 81.7181 21.0422 82.3709 20.7665C85.1138 19.6078 86.8366 16.8546 86.6792 13.8812L86.5101 10.688C86.3305 9.13108 85.3842 7.76707 83.9888 7.05351L83.7041 6.90789C82.5872 6.33677 81.3507 6.03897 80.0963 6.03897H67.8181L62.2104 0Z" fill="white"/>
<rect x="52.2446" y="11.1193" width="4.12183" height="3.83426" fill="white"/>
<path d="M118.479 0H143.211L138.561 6.03897H124.902V12.03L126.004 10.7839H139.376L134.775 17.398H124.902V27.415H118.479V0Z" fill="white"/>
<path d="M15.2441 20.896L19.7494 12.844L24.063 20.896H15.2441Z" fill="url(#paint0_linear_296_9843)"/>
<path opacity="0.5" d="M19.3577 5.72806L29.5357 25.0614H27.0832L19.3577 11.1291L11.7549 25.0614H9.48633L19.3577 5.72806Z" fill="url(#paint1_linear_296_9843)"/>
<defs>
<linearGradient id="paint0_linear_296_9843" x1="19.6535" y1="12.844" x2="19.6535" y2="20.896" gradientUnits="userSpaceOnUse">
<stop stop-color="white"/>
<stop offset="1" stop-color="white"/>
</linearGradient>
<linearGradient id="paint1_linear_296_9843" x1="19.511" y1="5.72806" x2="19.511" y2="25.0614" gradientUnits="userSpaceOnUse">
<stop stop-color="white"/>
<stop offset="1" stop-color="#2C353E"/>
</linearGradient>
</defs>
</svg>
