<svg width="34" height="34" viewBox="0 0 34 34" fill="none" xmlns="http://www.w3.org/2000/svg">
<g clip-path="url(#clip0_796_150)">
<path opacity="0.5" d="M5.4037 6.73367C7.25547 6.73367 8.75662 5.23252 8.75662 3.38075C8.75662 1.52899 7.25547 0.027832 5.4037 0.027832C3.55193 0.027832 2.05078 1.52899 2.05078 3.38075C2.05078 5.23252 3.55193 6.73367 5.4037 6.73367Z" fill="#182A4A"/>
<path opacity="0.5" d="M1.66261 18.4823H1.99513V25.1327C1.99513 26.0474 2.7433 26.7953 3.65773 26.7953H7.1492C8.06363 26.7953 8.81181 26.0474 8.81181 25.1327V24.7451C8.507 24.1629 8.31303 23.4981 8.31303 22.8054V14.1044C8.31303 12.4141 9.3383 10.9454 10.8069 10.3081V9.64307C10.8069 8.72864 10.0588 7.98047 9.14433 7.98047H1.66261C0.748172 7.98047 0 8.72864 0 9.64307V16.82C0 17.7344 0.720462 18.4823 1.66261 18.4823Z" fill="#182A4A"/>
<path opacity="0.5" d="M28.6244 6.73367C30.4762 6.73367 31.9773 5.23252 31.9773 3.38075C31.9773 1.52899 30.4762 0.027832 28.6244 0.027832C26.7726 0.027832 25.2715 1.52899 25.2715 3.38075C25.2715 5.23252 26.7726 6.73367 28.6244 6.73367Z" fill="#182A4A"/>
<path opacity="0.5" d="M23.1934 9.61573V10.2808C24.6623 10.9181 25.6873 12.3867 25.6873 14.0771V22.7503C25.6873 23.4431 25.521 24.1081 25.1888 24.69V25.078C25.1888 25.9924 25.9367 26.7406 26.8514 26.7406H30.3428C31.2573 26.7406 32.0054 25.9924 32.0054 25.078V18.4275H32.3377C33.2524 18.4275 34.0003 17.6794 34.0003 16.7649V9.61573C34.0003 8.7013 33.2524 7.95312 32.3377 7.95312H24.856C23.9418 7.95312 23.1934 8.70102 23.1934 9.61573Z" fill="#182A4A"/>
<path d="M10.834 14.1042V16.8198V22.8052C10.834 23.7196 11.5822 24.4678 12.4966 24.4678H13.1339V32.3098C13.1339 33.2242 13.8821 33.9724 14.7965 33.9724H19.2579C20.1723 33.9724 20.9205 33.2242 20.9205 32.3098V24.4401H21.5578C22.4722 24.4401 23.2204 23.6922 23.2204 22.7775V16.8201V14.1045C23.2204 13.1901 22.4722 12.4419 21.5578 12.4419H12.4966C11.5544 12.4416 10.834 13.1901 10.834 14.1042Z" fill="#182A4A"/>
<path d="M17.0138 11.0564C19.141 11.0564 20.8655 9.33197 20.8655 7.20473C20.8655 5.07749 19.141 3.35303 17.0138 3.35303C14.8866 3.35303 13.1621 5.07749 13.1621 7.20473C13.1621 9.33197 14.8866 11.0564 17.0138 11.0564Z" fill="#182A4A"/>
</g>
<defs>
<clipPath id="clip0_796_150">
<rect width="34" height="34" fill="white"/>
</clipPath>
</defs>
</svg>
