<svg width="24" height="24" viewBox="0 0 24 24" fill="none" xmlns="http://www.w3.org/2000/svg">
<g clip-path="url(#clip0_1126_577)">
<path d="M9.91659 16.7304H11.2042V21.9285H9.91659V16.7304ZM12.7936 21.9285H14.0812V16.7304H12.7936V21.9285ZM17.8882 6.5891V21.9285H15.6707V15.9359C15.6717 15.7252 15.5882 15.5226 15.4382 15.3736C15.2892 15.2235 15.0865 15.1401 14.8759 15.1411H9.1216C8.91098 15.1401 8.70831 15.2235 8.55929 15.3736C8.40928 15.5226 8.32582 15.7252 8.32682 15.9359V21.9285H6.10933V6.5891C6.11033 6.39835 6.18683 6.21553 6.32293 6.08142C6.45805 5.9473 6.64184 5.87279 6.83259 5.87378H17.1649C17.3557 5.87279 17.5395 5.9473 17.6746 6.08142C17.8107 6.21554 17.8872 6.39835 17.8882 6.5891ZM10.4647 13.6151C10.4637 13.1769 10.108 12.8213 9.66988 12.8203H9.12149C8.68236 12.8203 8.3267 13.1759 8.3267 13.6151C8.3267 14.0542 8.68236 14.4099 9.12149 14.4099H9.66988C10.108 14.4089 10.4637 14.0532 10.4647 13.6151ZM10.4647 11.1512C10.4637 10.7131 10.108 10.3574 9.66988 10.3564H9.12149C8.68236 10.3564 8.3267 10.7121 8.3267 11.1512C8.3267 11.5903 8.68236 11.946 9.12149 11.946H9.66988C10.108 11.945 10.4637 11.5893 10.4647 11.1512ZM10.4647 8.69531C10.4657 8.48469 10.3822 8.28202 10.2332 8.13201C10.0832 7.98299 9.88051 7.89954 9.66989 7.90053H9.1215C8.68237 7.90053 8.32671 8.25619 8.32671 8.69532C8.32671 9.13445 8.68237 9.49011 9.1215 9.49011H9.66989C10.108 9.48912 10.4637 9.13345 10.4647 8.69531ZM13.0637 13.6151C13.0647 13.4045 12.9813 13.2019 12.8312 13.0528C12.6822 12.9028 12.4795 12.8194 12.2689 12.8204H11.7205C11.2814 12.8204 10.9257 13.176 10.9257 13.6152C10.9257 14.0543 11.2814 14.4099 11.7205 14.4099H12.2689C12.4795 14.4109 12.6822 14.3275 12.8312 14.1775C12.9813 14.0284 13.0647 13.8258 13.0637 13.6151ZM13.0637 11.1513C13.0647 10.9407 12.9813 10.738 12.8312 10.589C12.6822 10.439 12.4795 10.3555 12.2689 10.3565H11.7205C11.2814 10.3565 10.9257 10.7122 10.9257 11.1513C10.9257 11.5904 11.2814 11.9461 11.7205 11.9461H12.2689C12.4795 11.9471 12.6822 11.8636 12.8322 11.7146C12.9813 11.5646 13.0647 11.3619 13.0637 11.1513ZM13.0637 8.69539C13.0657 8.48377 12.9822 8.28011 12.8332 8.13107C12.6842 7.98203 12.4805 7.89859 12.2689 7.90058H11.7205C11.2814 7.90058 10.9257 8.25624 10.9257 8.69537C10.9257 9.13451 11.2814 9.49017 11.7205 9.49017H12.2689C12.4795 9.49116 12.6822 9.40771 12.8312 9.25769C12.9812 9.10867 13.0647 8.906 13.0637 8.69539ZM15.6706 13.6152C15.6716 13.4046 15.5882 13.2019 15.4382 13.0529C15.2891 12.9029 15.0865 12.8194 14.8759 12.8204H14.3275C13.8883 12.8204 13.5327 13.1761 13.5327 13.6152C13.5327 14.0544 13.8883 14.41 14.3275 14.41H14.8759C15.0865 14.411 15.2891 14.3276 15.4382 14.1775C15.5882 14.0285 15.6716 13.8258 15.6706 13.6152ZM15.6706 11.1514C15.6716 10.9407 15.5882 10.7381 15.4382 10.5891C15.2891 10.439 15.0865 10.3556 14.8759 10.3566H14.3275C13.8883 10.3566 13.5327 10.7122 13.5327 11.1514C13.5327 11.5905 13.8883 11.9462 14.3275 11.9462H14.8759C15.0865 11.9472 15.2891 11.8637 15.4392 11.7147C15.5882 11.5647 15.6716 11.362 15.6706 11.1514ZM15.6706 8.69546C15.6726 8.48385 15.5892 8.28019 15.4401 8.13115C15.2911 7.98211 15.0875 7.89867 14.8758 7.90066H14.3274C13.8883 7.90066 13.5326 8.25632 13.5326 8.69545C13.5326 9.13458 13.8883 9.49024 14.3274 9.49024H14.8758C15.0864 9.49124 15.2891 9.40778 15.4381 9.25777C15.5882 9.10874 15.6716 8.90608 15.6706 8.69546ZM15.75 2.0749H8.24714C8.05639 2.07391 7.87258 2.14842 7.73748 2.28254C7.60137 2.41666 7.52487 2.59947 7.52388 2.79022V4.28443H16.4734V2.79022C16.4724 2.59947 16.3959 2.41665 16.2598 2.28254C16.1247 2.14842 15.9407 2.07391 15.75 2.0749Z" fill="white"/>
<path d="M22.5059 11.501L19.4778 10.4758V21.9287H22.9988V12.1846C22.9968 11.8746 22.7989 11.6004 22.5059 11.501ZM1.49153 11.501C1.19846 11.6004 1.00074 11.8746 0.998756 12.1845V21.9286H4.51975V10.4757L1.49153 11.501Z" fill="#A1A1A1"/>
</g>
<defs>
<clipPath id="clip0_1126_577">
<rect width="24" height="24" fill="white"/>
</clipPath>
</defs>
</svg>
