<svg width="104" height="104" viewBox="0 0 104 104" fill="none" xmlns="http://www.w3.org/2000/svg">
<path d="M23.0449 20.686C21.1313 20.686 19.5649 22.2509 19.5649 24.1627V80.1752C19.5649 82.0871 21.1313 83.6518 23.0448 83.6518H78.871C80.783 83.6518 82.3493 82.0872 82.3493 80.1753V24.1627C82.3493 22.2508 80.783 20.6861 78.871 20.6861L23.0449 20.686ZM37.7458 36.9534H64.1686C65.3237 36.9534 66.2685 37.9 66.2685 39.0549V65.2848C66.2685 66.4396 65.3236 67.3846 64.1687 67.3846H37.7459C36.591 67.3846 35.6478 66.4396 35.6478 65.2847V39.0548C35.6478 37.9 36.5909 36.9534 37.7458 36.9534Z" fill="white"/>
<path d="M30.1029 97.8817C28.6951 97.8817 27.5539 96.7405 27.5539 95.3327V90.4257C27.5539 89.0179 28.6951 87.8767 30.1029 87.8767H33.2383C34.6461 87.8767 35.7873 89.0179 35.7873 90.4257V95.3327C35.7873 96.7405 34.6461 97.8817 33.2383 97.8817H30.1029ZM95.3335 55.1238C96.7413 55.1238 97.8825 56.265 97.8825 57.6728V59.4146C97.8825 60.8224 96.7413 61.9636 95.3335 61.9636H90.4268C89.019 61.9636 87.8778 60.8224 87.8778 59.4146V57.6728C87.8778 56.265 89.019 55.1238 90.4268 55.1238H95.3335ZM95.3335 42.0353C96.7413 42.0353 97.8825 43.1765 97.8825 44.5843V46.326C97.8825 47.7338 96.7413 48.875 95.3335 48.875H90.4268C89.019 48.875 87.8778 47.7338 87.8778 46.326V44.5842C87.8778 43.1765 89.019 42.0352 90.4268 42.0352L95.3335 42.0353ZM95.3335 68.2125C96.7413 68.2125 97.8825 69.3537 97.8825 70.7615V73.8969C97.8825 75.3047 96.7413 76.4459 95.3335 76.4459H90.4268C89.019 76.4459 87.8778 75.3047 87.8778 73.8969V70.7615C87.8778 69.3537 89.019 68.2125 90.4268 68.2125H95.3335ZM95.3335 27.5527C96.7413 27.5527 97.8825 28.6939 97.8825 30.1017V33.2372C97.8825 34.645 96.7413 35.7862 95.3335 35.7862H90.4268C89.019 35.7862 87.8778 34.645 87.8778 33.2372V30.1018C87.8778 28.694 89.019 27.5528 90.4268 27.5528L95.3335 27.5527ZM8.66717 55.1241C7.25939 55.1241 6.11816 56.2653 6.11816 57.6731V59.4149C6.11816 60.8226 7.25939 61.9639 8.66717 61.9639H13.5742C14.9819 61.9639 16.1232 60.8226 16.1232 59.4149V57.6731C16.1232 56.2653 14.9819 55.1241 13.5742 55.1241H8.66717ZM8.66717 42.0354C7.25939 42.0354 6.11816 43.1766 6.11816 44.5844V46.3262C6.11816 47.734 7.25939 48.8752 8.66717 48.8752H13.5742C14.9819 48.8752 16.1232 47.734 16.1232 46.3262V44.5844C16.1232 43.1766 14.9819 42.0354 13.5742 42.0354H8.66717ZM8.66717 68.2126C7.25939 68.2126 6.11816 69.3538 6.11816 70.7616V73.897C6.11816 75.3048 7.25939 76.446 8.66717 76.446H13.5742C14.9819 76.446 16.1232 75.3048 16.1232 73.897V70.7616C16.1232 69.3538 14.9819 68.2126 13.5742 68.2126H8.66717ZM8.66717 27.5529C7.25939 27.5529 6.11816 28.6941 6.11816 30.1019V33.2373C6.11816 34.6451 7.25939 35.7863 8.66717 35.7863H13.5742C14.9819 35.7863 16.1232 34.6451 16.1232 33.2373V30.1019C16.1232 28.6941 14.9819 27.5529 13.5742 27.5529H8.66717ZM55.1246 8.66619C55.1246 7.25842 56.2659 6.11719 57.6736 6.11719H59.4155C60.8233 6.11719 61.9645 7.25842 61.9645 8.66619V13.5732C61.9645 14.981 60.8233 16.1222 59.4155 16.1222H57.6736C56.2659 16.1222 55.1246 14.981 55.1246 13.5732V8.66619ZM42.0362 8.66619C42.0362 7.25842 43.1774 6.11719 44.5852 6.11719H46.3269C47.7346 6.11719 48.8759 7.25842 48.8759 8.66619V13.5732C48.8759 14.981 47.7346 16.1222 46.3269 16.1222H44.5852C43.1774 16.1222 42.0362 14.981 42.0362 13.5732V8.66619ZM68.2134 8.66619C68.2134 7.25842 69.3546 6.11719 70.7624 6.11719H73.8977C75.3055 6.11719 76.4467 7.25842 76.4467 8.66619V13.5732C76.4467 14.981 75.3055 16.1222 73.8977 16.1222H70.7624C69.3546 16.1222 68.2134 14.981 68.2134 13.5732V8.66619ZM27.5537 8.66619C27.5537 7.25842 28.6949 6.11719 30.1027 6.11719H33.2381C34.6459 6.11719 35.7871 7.25842 35.7871 8.66619V13.5732C35.7871 14.981 34.6459 16.1222 33.2381 16.1222H30.1027C28.6949 16.1222 27.5537 14.981 27.5537 13.5732V8.66619ZM55.1247 95.3329C55.1247 96.7407 56.266 97.8819 57.6737 97.8819H59.4156C60.8234 97.8819 61.9646 96.7407 61.9646 95.3329V90.4257C61.9646 89.0179 60.8234 87.8767 59.4156 87.8767H57.6737C56.266 87.8767 55.1247 89.0179 55.1247 90.4257V95.3329ZM42.0363 95.3329C42.0363 96.7407 43.1775 97.8819 44.5853 97.8819H46.3269C47.7347 97.8819 48.8759 96.7407 48.8759 95.3329V90.4257C48.8759 89.0179 47.7347 87.8767 46.3269 87.8767H44.5852C43.1774 87.8767 42.0362 89.018 42.0362 90.4257L42.0363 95.3329ZM68.2135 95.3329C68.2135 96.7407 69.3547 97.8819 70.7625 97.8819H73.8978C75.3056 97.8819 76.4468 96.7407 76.4468 95.3329V90.4257C76.4468 89.0179 75.3056 87.8767 73.8978 87.8767H70.7625C69.3547 87.8767 68.2135 89.0179 68.2135 90.4257V95.3329Z" fill="#A1A1A1"/>
</svg>
