<svg width="28" height="20" viewBox="0 0 28 20" fill="none" xmlns="http://www.w3.org/2000/svg">
<g id="SI">
<rect id="Mask" x="0.25" y="0.25" width="27.5" height="19.5" rx="1.75" fill="white" stroke="#F5F5F5" stroke-width="0.5"/>
<mask id="mask0_857_767" style="mask-type:luminance" maskUnits="userSpaceOnUse" x="0" y="0" width="28" height="20">
<rect id="Mask_2" x="0.25" y="0.25" width="27.5" height="19.5" rx="1.75" fill="white" stroke="white" stroke-width="0.5"/>
</mask>
<g mask="url(#mask0_857_767)">
<path id="Combined Shape" d="M7.33301 4.66699C8.29947 4.66699 9.23668 5.32773 9.24414 5.33301V6.66699H28V13.333H0V6.66699H5.33301V5.33301C5.33301 5.33301 6.36276 4.66714 7.33301 4.66699ZM7.33301 6.66699C6.59678 6.66717 6 7.26373 6 8C6 8.73627 6.59678 9.33283 7.33301 9.33301C8.06939 9.33301 8.66699 8.73638 8.66699 8C8.66699 7.26362 8.06939 6.66699 7.33301 6.66699Z" fill="#0C47B7"/>
<g id="Rectangle 2" filter="url(#filter0_d_857_767)">
<path fill-rule="evenodd" clip-rule="evenodd" d="M0 20H28V13.3334H0V20Z" fill="#E53B35"/>
</g>
</g>
</g>
<defs>
<filter id="filter0_d_857_767" x="0" y="13.3334" width="28" height="6.66663" filterUnits="userSpaceOnUse" color-interpolation-filters="sRGB">
<feFlood flood-opacity="0" result="BackgroundImageFix"/>
<feColorMatrix in="SourceAlpha" type="matrix" values="0 0 0 0 0 0 0 0 0 0 0 0 0 0 0 0 0 0 127 0" result="hardAlpha"/>
<feOffset/>
<feColorMatrix type="matrix" values="0 0 0 0 0 0 0 0 0 0 0 0 0 0 0 0 0 0 0.06 0"/>
<feBlend mode="normal" in2="BackgroundImageFix" result="effect1_dropShadow_857_767"/>
<feBlend mode="normal" in="SourceGraphic" in2="effect1_dropShadow_857_767" result="shape"/>
</filter>
</defs>
</svg>
